<?xml version="1.0" encoding="utf-8"?>
<!-- Generator: Adobe Illustrator 22.0.1, SVG Export Plug-In . SVG Version: 6.00 Build 0)  -->
<svg version="1.1" id="Layer_1" xmlns="http://www.w3.org/2000/svg" xmlns:xlink="http://www.w3.org/1999/xlink" x="0px" y="0px"
	 viewBox="0 0 60 40" style="enable-background:new 0 0 60 40;" xml:space="preserve">
<style type="text/css">
	.st0{fill:#FFFFFF;}
</style>
<title>67</title>
<g>
	<path class="st0" d="M59.5,16.4c0-0.5-0.3-1-0.8-1.2L34.6,5.3c-2-0.8-4.2-0.8-6.2,0L4.3,15.2c-0.5,0.2-0.8,0.7-0.8,1.2l0,0
		c0,0.1,0,0.1,0,0.2v20.9c0,0.7,0.6,1.4,1.4,1.4s1.4-0.6,1.4-1.4V18.4l6.4,2.8V34c0,0.5,0.3,0.9,0.7,1.1l0.4,0.2
		c11.1,6.2,24.6,6.2,35.6,0l0.4-0.2c0.4-0.3,0.7-0.7,0.7-1.1V21.2l8.3-3.6C59.2,17.4,59.5,16.9,59.5,16.4z M47.7,33.3
		c-10.1,5.5-22.3,5.5-32.4,0V22.4l13,5.6c2,0.9,4.4,0.9,6.4,0l13-5.6V33.3z M33.6,25.5c-1.4,0.6-2.9,0.6-4.3,0L8.3,16.4l21.2-8.7
		c1.4-0.5,2.8-0.5,4.1,0l21.1,8.7L33.6,25.5z"/>
</g>
</svg>
