<?xml version="1.0" encoding="utf-8"?>
<!-- Generator: Adobe Illustrator 22.0.1, SVG Export Plug-In . SVG Version: 6.00 Build 0)  -->
<svg version="1.1" id="Layer_1" xmlns="http://www.w3.org/2000/svg" xmlns:xlink="http://www.w3.org/1999/xlink" x="0px" y="0px"
	 viewBox="0 0 60 45" style="enable-background:new 0 0 60 45;" xml:space="preserve">
<style type="text/css">
	.st0{fill:#FFFFFF;}
</style>
<title>CV Icons</title>
<path class="st0" d="M56.1,12.4c0-0.1,0-0.1,0-0.2c0-0.1,0-0.1,0-0.2c0-0.1,0-0.2-0.1-0.4c-0.1-0.4-0.2-0.7-0.5-0.9
	c0,0,0-0.1-0.1-0.1c0-0.1-0.1-0.1-0.1-0.2c-0.1-0.1-0.2-0.4-0.5-0.5c-0.1-0.1-0.1-0.1-0.2-0.1l-0.1-0.1c-0.4-0.2-0.6-0.4-0.9-0.5
	c-0.1,0-0.2-0.1-0.4-0.1S53,9,52.9,9c-0.1,0-0.1,0-0.2,0c-0.1,0-0.1,0-0.2,0h-14V6.7c0-2-1.5-3.5-3.5-3.5l0,0h-9.4
	c-2,0-3.5,1.5-3.5,3.5l0,0v2.4H7.7c-0.1,0-0.1,0-0.2,0s-0.1,0-0.2,0s-0.1,0-0.2,0s-0.2,0-0.4,0.1C6.3,9.3,5.9,9.5,5.7,9.7
	c0,0-0.1,0-0.1,0.1c-0.1,0-0.1,0.1-0.2,0.1c-0.1,0.1-0.4,0.2-0.5,0.5c-0.1,0.1-0.1,0.1-0.1,0.2l-0.1,0.1c-0.2,0.4-0.4,0.6-0.5,0.9
	c0,0.1-0.1,0.2-0.1,0.4s0,0.1,0,0.2c0,0.1,0,0.1,0,0.2c0,0.1,0,0.1,0,0.2v30.7c0,0.7,0.5,1.2,1.2,1.2h49.5c0.7,0,1.2-0.5,1.2-1.2
	V12.6C56.1,12.5,56.1,12.5,56.1,12.4z M24.2,6.7c0-0.7,0.5-1.2,1.2-1.2h9.4C35.5,5.6,36,6,36,6.7v2.4H24.2V6.7z M6.5,12.6L6.5,12.6
	c0-0.1,0-0.2,0-0.2c0-0.1,0.1-0.2,0.1-0.5l0.1-0.1l0,0l0,0l0.1-0.1l0,0c0.1,0,0.1-0.1,0.2-0.1s0.1,0,0.2-0.1l0,0h0.1h0.1h44.8h0.1
	h0.1c0.1,0,0.2,0.1,0.5,0.1l0.1,0.1l0,0l0,0l0.1,0.1l0,0c0,0.1,0.1,0.1,0.1,0.2c0,0.1,0,0.1,0.1,0.2l0,0v0.1v0.1v7.1
	c0,3.3-2.6,5.9-5.9,5.9H34.2v-1.2c0-2-1.5-3.5-3.5-3.5h-1.2c-2,0-3.5,1.5-3.5,3.5v1.2H12.4c-3.3,0-5.9-2.6-5.9-5.9V12.6z M28.3,24.4
	c0-0.7,0.5-1.2,1.2-1.2h1.2c0.7,0,1.2,0.5,1.2,1.2v4.7c0,0.7-0.5,1.2-1.2,1.2h-1.2c-0.7,0-1.2-0.5-1.2-1.2V24.4z M53.7,42.1H6.5
	V25.5C8.1,27,10.2,28,12.4,28H26v1.2c0,2,1.5,3.5,3.5,3.5h1.2c2,0,3.5-1.5,3.5-3.5V28h13.6c2.2,0,4.4-0.9,5.9-2.5V42.1z"/>
<path d="M123.8-4.3L123.8-4.3c0-0.1,0-0.1-0.1-0.2C123.8-4.4,123.8-4.4,123.8-4.3z M84.4-4.9c0.1-0.1,0.1-0.1,0.2-0.1l0,0
	C84.5-5.1,84.5-4.9,84.4-4.9z"/>
</svg>
