<?xml version="1.0" encoding="utf-8"?>
<!-- Generator: Adobe Illustrator 22.0.1, SVG Export Plug-In . SVG Version: 6.00 Build 0)  -->
<svg version="1.1" id="Layer_1" xmlns="http://www.w3.org/2000/svg" xmlns:xlink="http://www.w3.org/1999/xlink" x="0px" y="0px"
	 viewBox="0 0 100 125" style="enable-background:new 0 0 100 125;" xml:space="preserve">
<style type="text/css">
	.st0{fill:#FFFFFF;}
</style>
<title>67</title>
<g>
	<path class="st0" d="M91.4,41.1c0-0.8-0.5-1.5-1.2-1.8L54.6,24.7c-2.9-1.2-6.2-1.2-9.1,0L9.8,39.3c-0.7,0.3-1.2,1-1.2,1.8l0,0
		c0,0.1,0,0.2,0,0.3v30.9c0,1.1,0.9,2,2,2s2-0.9,2-2V44.1l9.5,4.1v19c0,0.7,0.4,1.3,1,1.7l0.6,0.3c16.4,9.1,36.3,9.1,52.7,0l0.6-0.3
		c0.6-0.4,1-1,1-1.7v-19l12.3-5.3C91,42.6,91.4,41.9,91.4,41.1z M74,66.1c-14.9,8.1-33,8.1-47.9,0V50l19.2,8.3c3,1.3,6.5,1.3,9.5,0
		L74,50V66.1z M53.2,54.6c-2,0.9-4.3,0.9-6.3,0L15.7,41.2L47,28.4c2-0.8,4.1-0.8,6.1,0l31.2,12.8L53.2,54.6z"/>
</g>
</svg>
