<?xml version="1.0" encoding="utf-8"?>
<!-- Generator: Adobe Illustrator 22.0.1, SVG Export Plug-In . SVG Version: 6.00 Build 0)  -->
<svg version="1.1" id="Layer_1" xmlns="http://www.w3.org/2000/svg" xmlns:xlink="http://www.w3.org/1999/xlink" x="0px" y="0px"
	 viewBox="0 0 48 60" style="enable-background:new 0 0 48 60;" xml:space="preserve">
<style type="text/css">
	.st0{fill:#FFFFFF;}
</style>
<title>CV Icons</title>
<path class="st0" d="M46,13.8c0-0.1,0-0.1,0-0.2c0-0.1,0-0.1,0-0.2c0-0.1,0-0.2-0.1-0.3c-0.1-0.3-0.2-0.6-0.4-0.8c0,0,0-0.1-0.1-0.1
	c0-0.1-0.1-0.1-0.1-0.2c-0.1-0.1-0.2-0.3-0.4-0.4c-0.1-0.1-0.1-0.1-0.2-0.1l-0.1-0.1c-0.3-0.2-0.5-0.3-0.8-0.4
	c-0.1,0-0.2-0.1-0.3-0.1c-0.1,0-0.1,0-0.2,0c-0.1,0-0.1,0-0.2,0c-0.1,0-0.1,0-0.2,0H31V9c0-1.7-1.3-3-3-3c0,0,0,0,0,0h-8
	c-1.7,0-3,1.3-3,3c0,0,0,0,0,0v2H5c-0.1,0-0.1,0-0.2,0c-0.1,0-0.1,0-0.2,0c-0.1,0-0.1,0-0.2,0c-0.1,0-0.2,0-0.3,0.1
	c-0.3,0.1-0.6,0.2-0.8,0.4c0,0-0.1,0-0.1,0.1c-0.1,0-0.1,0.1-0.2,0.1c-0.1,0.1-0.3,0.2-0.4,0.4c-0.1,0.1-0.1,0.1-0.1,0.2l-0.1,0.1
	c-0.2,0.3-0.3,0.5-0.4,0.8c0,0.1-0.1,0.2-0.1,0.3c0,0.1,0,0.1,0,0.2c0,0.1,0,0.1,0,0.2c0,0.1,0,0.1,0,0.2v26c0,0.6,0.4,1,1,1h42
	c0.6,0,1-0.4,1-1V14C46,13.9,46,13.9,46,13.8z M19,9c0-0.6,0.4-1,1-1h8c0.6,0,1,0.4,1,1v2H19V9z M4,14C4,14,4,14,4,14
	c0-0.1,0-0.2,0-0.2c0-0.1,0.1-0.2,0.1-0.4c0,0,0.1-0.1,0.1-0.1l0,0l0,0c0,0,0.1-0.1,0.1-0.1c0,0,0,0,0,0c0.1,0,0.1-0.1,0.2-0.1
	c0.1,0,0.1,0,0.2-0.1h0c0,0,0.1,0,0.1,0c0,0,0.1,0,0.1,0h38c0,0,0.1,0,0.1,0c0,0,0.1,0,0.1,0c0.1,0,0.2,0.1,0.4,0.1
	c0,0,0.1,0.1,0.1,0.1l0,0l0,0c0,0,0.1,0.1,0.1,0.1c0,0,0,0,0,0c0,0.1,0.1,0.1,0.1,0.2c0,0.1,0,0.1,0.1,0.2v0c0,0,0,0.1,0,0.1
	c0,0,0,0.1,0,0.1v6c0,2.8-2.2,5-5,5H27.5v-1c0-1.7-1.3-3-3-3h-1c-1.7,0-3,1.3-3,3v1H9c-2.8,0-5-2.2-5-5V14z M22.5,24
	c0-0.6,0.4-1,1-1h1c0.6,0,1,0.4,1,1v4c0,0.6-0.4,1-1,1h-1c-0.6,0-1-0.4-1-1V24z M44,39H4V24.9C5.3,26.2,7.1,27,9,27h11.5v1
	c0,1.7,1.3,3,3,3h1c1.7,0,3-1.3,3-3v-1H39c1.9,0,3.7-0.8,5-2.1V39z"/>
<path d="M44,13.8L44,13.8c0-0.1,0-0.1-0.1-0.2C44,13.7,44,13.7,44,13.8z M4.6,13.1C4.7,13,4.7,13,4.8,13h0C4.7,13,4.7,13.1,4.6,13.1
	z"/>
</svg>
